# xmcd
#
# Track frame offsets: 
#        300
#        15429
#        36808
#        52912
#        69751
#        97685
#        115563
#        143155
#        169100
#        199351
#        213046
#        246266
#        273487
#        293604
#        309615
#
# Disc length: 4501 seconds
#
# Revision: 0
# Processed by: cddbd v1.5.2PL0 Copyright (c) Steve Scherf et al.
# Submitted via: ExactAudioCopy v1.0b1
#
DISCID=c511910f
DTITLE=Jimmy Dawkins - Born In Poverty
DYEAR=2002
DGENRE=Chicago Blues
TTITLE0=Ain't Never Had Nothing
TTITLE1=Born In Poverty
TTITLE2=Instrumental Shuffle
TTITLE3=It Serves You Right To Suffer
TTITLE4=Life Is A Mean Mistreater
TTITLE5=Marcelle Jacques Et Luc
TTITLE6=Marcelle Morgantini's Cassoulet
TTITLE7=Mean Atlantic Ocean
TTITLE8=Mississippi Bound
TTITLE9=Ode To Billy Joe
TTITLE10=Off Business
TTITLE11=All For Business
TTITLE12=Tibute To Orange
TTITLE13=Your Love
TTITLE14=You've Got To Keep On Trying
EXTD=
EXTT0=
EXTT1=
EXTT2=
EXTT3=
EXTT4=
EXTT5=
EXTT6=
EXTT7=
EXTT8=
EXTT9=
EXTT10=
EXTT11=
EXTT12=
EXTT13=
EXTT14=
PLAYORDER=
